<svg xmlns="http://www.w3.org/2000/svg" viewBox="0 0 1200 630" width="1200" height="630">
  <defs>
    <linearGradient id="bg" x1="0" y1="0" x2="1" y2="1">
      <stop offset="0" stop-color="#2f5d50"/>
      <stop offset="1" stop-color="#1f3d34"/>
    </linearGradient>
  </defs>
  <rect width="1200" height="630" fill="url(#bg)"/>
  <g opacity="0.12" fill="#ffffff">
    <path d="M0 0h120c-18 210-6 420 0 630H0z"/>
    <path d="M1080 0h120v630h-120c6-210 18-420 0-630z"/>
  </g>
  <g transform="translate(90,250)">
    <rect x="0" y="0" width="96" height="48" rx="8" fill="#faf7f2"/>
    <rect x="14" y="12" width="20" height="18" rx="3" fill="#3a6f60"/>
    <rect x="42" y="12" width="20" height="18" rx="3" fill="#3a6f60"/>
    <rect x="96" y="6" width="30" height="30" rx="6" fill="#faf7f2"/>
    <circle cx="28" cy="60" r="12" fill="#23291f"/>
    <circle cx="98" cy="60" r="12" fill="#23291f"/>
  </g>
  <text x="90" y="230" font-family="Segoe UI, Arial, sans-serif" font-size="40" font-weight="700" fill="#d98a3d">Mobil gardinservice</text>
  <text x="90" y="420" font-family="Segoe UI, Arial, sans-serif" font-size="86" font-weight="800" fill="#ffffff">Gardinbussen</text>
  <text x="90" y="500" font-family="Segoe UI, Arial, sans-serif" font-size="40" font-weight="400" fill="#c9d8d1">Vi kører gardinbutikken hjem til dig</text>
  <text x="90" y="575" font-family="Segoe UI, Arial, sans-serif" font-size="30" font-weight="700" fill="#faf7f2">Gratis hjemmebesøg · Opmåling · Montering</text>
</svg>
